<svg xmlns="http://www.w3.org/2000/svg" viewBox="0 0 147.66 147.66"><g id="圖層_2" data-name="圖層 2"><g id="圖層_1-2" data-name="圖層 1"><g id="G4cJ8B.tif"><path d="M65.6,0H82.31c.64.13,1.27.28,1.91.4Q130.38,8.62,145,53.15c1.31,4,1.8,8.13,2.63,12.2V82.06c-.14.72-.31,1.44-.42,2.16-6.46,40.9-42.79,68.33-83.72,62.71-39.38-5.41-69.3-42-62.57-84.3C5.8,32.15,24,12.25,53.38,2.63,57.36,1.33,61.52.85,65.6,0Zm8.77,111.48c12.52,0,25,0,37.57,0,7.45,0,12-4.51,12-11.91q0-26,0-52.06c0-7.41-4.56-12-11.92-12q-37.57,0-75.14,0c-7.66,0-12,4.34-12,12.07q0,25.91,0,51.81c0,7.85,4.29,12.08,12.18,12.09Q55.7,111.5,74.37,111.48Z"/><path d="M74.09,102.83q-17.69,0-35.38,0c-3.52,0-3.66-.12-3.66-3.53q0-20.14,0-40.29c0-.87-.35-2,.51-2.51,1-.57,1.76.56,2.48,1.13q16.61,13,33.17,26.17c3.73,3,4.49,3,8.23-.1q15.28-12.54,30.6-25.06c.67-.55,1.36-1.59,2.25-1.22,1.07.46.6,1.73.6,2.65,0,13.19,0,26.37.07,39.56,0,2.48-.81,3.26-3.26,3.24C97.84,102.78,86,102.83,74.09,102.83Z"/><path d="M74.56,44.08c11.63,0,22.5,0,33.38,0,.76,0,1.89-.4,2.2.51s-.82,1.27-1.42,1.75c-10.52,8.32-21.08,16.59-31.56,25-1.6,1.28-2.67,1.18-4.23-.08-10.45-8.4-21-16.7-31.48-25.05-.61-.49-1.73-.94-1.43-1.78s1.56-.65,2.42-.65C53.4,43.79,64.36,43.65,74.56,44.08Z"/></g></g></g></svg>