<svg xmlns="http://www.w3.org/2000/svg" viewBox="0 0 153.44 149.77"><g id="圖層_2" data-name="圖層 2"><g id="圖層_1-2" data-name="圖層 1"><g id="gkwZ9t"><path d="M94.72,132.23c-.25-3.88.43-8.6-.39-13.27a13.63,13.63,0,0,0-3.6-7.4c-.43-.44-1.2-.84-.78-1.63a1.82,1.82,0,0,1,1.75-.73,35.74,35.74,0,0,0,11-2.2c6-2.06,11.47-5,15.26-10.32a33.06,33.06,0,0,0,5.87-15.94,48.55,48.55,0,0,0,0-13.83,24.28,24.28,0,0,0-5.24-11.72,5.29,5.29,0,0,1-1.16-5.53c1.5-5.21.82-10.47-1-15.57-.42-1.17-1.33-1.22-2.32-1.22-3.51,0-6.56,1.54-9.6,3a53.88,53.88,0,0,0-6.69,3.81,4.45,4.45,0,0,1-4.11.71,55.92,55.92,0,0,0-15.89-2.09A57.27,57.27,0,0,0,60.6,40.19a5.76,5.76,0,0,1-5.34-.85,43.4,43.4,0,0,0-13.81-6.18c-3.51-.89-4-.52-5.06,2.86a22.4,22.4,0,0,0,0,14.49,3,3,0,0,1-.48,3.26c-5.73,6.82-7.35,14.72-6.59,23.48a43,43,0,0,0,4.6,16.85c3.64,6.82,9.85,10.52,16.9,12.94a35.15,35.15,0,0,0,10.76,2.16c.71,0,1.58,0,1.88.84s-.52,1.13-.94,1.6a15.24,15.24,0,0,0-3.41,7.3,3.25,3.25,0,0,1-2.4,2.83c-9.2,2.73-15.84,1.56-21-6.79-2.46-4-5.61-7-10.43-7.72a5.85,5.85,0,0,0-1.31-.11c-.64,0-1.45-.07-1.69.73-.18.64.4,1,.84,1.44,1.46,1.33,3.29,2.18,4.65,3.69a27.82,27.82,0,0,1,5.18,8.64c2.27,5.84,6.85,8.45,12.73,9a43,43,0,0,0,11-.18c1.38-.23,1.93.35,1.93,1.65,0,4.48.12,9,0,13.45-.1,3.35-3.11,5-6.61,3.8a74.81,74.81,0,0,1-22.2-12,77.67,77.67,0,0,1-24-31.55A75.27,75.27,0,0,1,1,88.48,72.94,72.94,0,0,1,.42,68.75a76,76,0,0,1,7-24.9A79.65,79.65,0,0,1,21.11,24,76.32,76.32,0,0,1,84.05.33a74,74,0,0,1,38,14.51,76.4,76.4,0,0,1,31,69.16c-1.83,18.85-9.75,34.74-23.13,48a74.37,74.37,0,0,1-28.33,17.33c-3.88,1.36-6.79-.7-6.89-4.79V132.23Z"/></g></g></g></svg>