<svg xmlns="http://www.w3.org/2000/svg" viewBox="0 0 144.36 144.36"><g id="圖層_2" data-name="圖層 2"><g id="圖層_1-2" data-name="圖層 1"><g id="uIEI6K.tif"><path d="M144.36,28.78A28.24,28.24,0,0,0,120.28.44L117.39,0H27.09c-1.65.29-3.31.53-4.95.89A28.06,28.06,0,0,0,.42,24.34c-.13.92-.28,1.83-.42,2.75v90.3c.28,1.6.5,3.23.86,4.82A28,28,0,0,0,24.28,144a32.19,32.19,0,0,0,4.5.3q43.44,0,86.89,0A28.19,28.19,0,0,0,144,120.3a28.6,28.6,0,0,0,.33-4.63Q144.37,72.23,144.36,28.78ZM71.66,98.32a25.5,25.5,0,0,0,20.86-6.8c1-.93,1.6-.9,2.53.06,3.65,3.72,7.38,7.36,11.06,11-10,11.12-28,16.78-44.78,11.41a44,44,0,0,1-.51-83.51c17.34-5.77,35.56.31,45.31,11.26q-4.83,4.75-9.66,9.56c-2.58,2.56-2.57,2.56-5.35.3C75.9,39.22,52.43,47.9,48.92,67.24A26.2,26.2,0,0,0,71.66,98.32Z"/></g></g></g></svg>