<svg preserveAspectRatio="none" viewBox="0 0 480 456" fill-rule="evenodd" fill="#fff" class="qqball"><path d="M 0 0 H 480 V456 H 0 L 0 0 z M 240,38 C 270 38 304.2 44.94999999999999 330 57.94999999999999 C 355.8 70.94999999999999 379.8 92.45 394.8 116 C 409.8 139.55 419.22 172.675 420 199.25 C 420.78 225.825 414.81 254.42499999999998 399.48 275.45 C 384.15000000000003 296.47499999999997 354.59999999999997 314.97499999999997 328.02 325.4 C 301.44 335.825 269.34 338 240 338 C 210.66 338 178.56 335.92499999999995 151.98000000000002 325.4 C 125.40000000000002 314.875 95.85000000000001 295.875 80.52000000000001 274.85 C 65.19000000000001 253.82500000000002 59.220000000000006 225.725 60 199.25 C 60.779999999999994 172.775 70.19999999999999 139.55 85.19999999999999 116 C 100.19999999999999 92.45 124.2 70.94999999999999 150 57.94999999999999 C 175.8 44.94999999999999 210 38 240 38 z"></path></svg>