<svg xmlns="http://www.w3.org/2000/svg" viewBox="0 0 248.94 248.94"><defs><style>.cls-1{fill:#846d68;}.cls-2{fill:#e5cfbd;}</style></defs><g id="圖層_2" data-name="圖層 2"><g id="圖層_1-2" data-name="圖層 1"><rect class="cls-1" width="248.94" height="248.94" rx="124.47"/><g id="fKSZhP.tif"><path class="cls-2" d="M142.29,171.58c-7.32,3.94-13.85,7.46-20.4,10.94a6.94,6.94,0,0,1-2.07.59c-6.43,1.1-10.42-.5-11.27-4.49-.89-4.19,1.54-6.35,8.73-7.73,10.66-2,17-9.58,17.09-20.4.06-17.52.13-35.05,0-52.57-.07-9.76-7.16-18.16-16.19-19.73C108.46,76.51,98.84,81.83,96,91.26c-1.23,4-1.12,8.54-1.16,12.83-.13,14.45,0,28.9-.06,43.35,0,1.63.51,3.69-.28,4.78-1.63,2.25-3.77,5.26-6.07,5.62-3.51.57-5.79-2.31-6-6.15-.06-1.44,0-2.89,0-4.33,0-16.26,0-32.52-.06-48.78C82.28,88.6,76.12,81.2,66.28,79A38.67,38.67,0,0,0,62,78.17c-3.71-.41-5.63-2.67-5.45-6.14s2.48-5.39,6.12-5.55c8-.34,14.82,2.54,20.81,7.62,1.51,1.28,2.89,2.71,5.86,5.52,1-1.74,1.65-3.84,3.05-5.1,9.65-8.69,20.78-11.42,33.06-6.81C137.46,72.2,144.92,81,146,93.86c.74,9.29.14,18.69.14,29.57,12.55-7.5,24.15-9.49,36.17-3.56A32.6,32.6,0,0,1,198,136.36a33.09,33.09,0,0,1-10.79,40.08C173,186.8,157.12,184.82,142.29,171.58Zm4.71-22c.07,12.16,8.7,21,20.51,21a20.9,20.9,0,1,0,.16-41.79C155.69,128.79,146.94,137.58,147,149.59Z"/></g></g></g></svg>