<svg xmlns="http://www.w3.org/2000/svg" viewBox="0 0 109.43 109.33"><defs><style>.Skill-OtherTools-1{fill:#c2a890;}.Skill-OtherTools-2{fill:#fefefe;}.Skill-OtherTools-3{fill:#9e9e9e;}.Skill-OtherTools-4{fill:#757575;}.Skill-OtherTools-5{fill:#7f5345;}.Skill-OtherTools-6{fill:#827875;}.Skill-OtherTools-7{fill:#feaa38;}.Skill-OtherTools-8{fill:#634036;}.Skill-OtherTools-9{fill:#fea792;}.Skill-OtherTools-10{fill:#d8d0ce;}.Skill-OtherTools-11{fill:#fee9a9;}.Skill-OtherTools-12{fill:#fed038;}.Skill-OtherTools-13{fill:#fecabe;}.Skill-OtherTools-14{fill:#232323;}</style></defs><g id="圖層_2" data-name="圖層 2"><g id="圖層_1-2" data-name="圖層 1"><g id="hfT0Lv.tif"><path class="Skill-OtherTools-1" d="M84,36.94a2,2,0,0,1-1.4-.57l-4.73-4.64L75.4,29.32c-2-2-4.05-4-6.07-6.1-1,.92-1.17,1-1.71,1h-.21A2,2,0,0,1,65.61,23c-.49-1.22.07-1.79,1.44-3.17a5,5,0,0,1,.43-.4c2.07-2.06,5.8-5.79,7.29-7.29l.27-.28a2.32,2.32,0,0,1,1.79-.95,2,2,0,0,1,1.84,1.23,1.75,1.75,0,0,1,0,1.6c2.23,2.2,4.41,4.4,6.6,6.59L89.84,25,92,27.12a2,2,0,0,1,0,2.81l-.61.62c-1.84,1.87-3.67,3.73-5.52,5.59a2.71,2.71,0,0,1-1.1.65A2.07,2.07,0,0,1,84,36.94Z"/><path class="Skill-OtherTools-1" d="M42.33,49.28a2,2,0,0,1-1.4-.61l-2.27-2.36c-.69-.72-1.4-1.41-2.11-2.1C35.36,43,34.13,41.84,33,40.52a2,2,0,0,1,.09-2.71l1.47-1.48h-.48a2,2,0,0,1-1.44-.91l-.08-.13q-3.62-3.61-7.22-7.21h0l-.09,0-.36-.22a2,2,0,0,1-.72-2.52l.15-.29,0-.09c.25-.94.49-1.88.74-2.82.49-1.92,1-3.85,1.52-5.76l-5.74-5.74-5-5a4.35,4.35,0,0,0-.48-.35c-.15-.1-.3-.2-.44-.31a2,2,0,0,1,.41-3.45A14.48,14.48,0,0,1,20.64.18h.19c.2,0,.62,0,1.1-.07.81,0,1.72-.11,2.3-.11a2.11,2.11,0,0,1,.86.19h.41A22.84,22.84,0,0,1,45.17,27.61l6.5,6.44L53.62,36a2,2,0,0,1,0,2.8c-3,3.23-6.17,6.3-9.9,9.92a2,2,0,0,1-1.39.57Z"/><path class="Skill-OtherTools-1" d="M37.43,54.18A2,2,0,0,1,36,53.59l-2.12-2.12c-2.09-2.11-4.19-4.21-6.28-6.33a24.58,24.58,0,0,1-4.9.51,21.56,21.56,0,0,1-7.79-1.44A22.28,22.28,0,0,1,1.16,29.89C.84,28.92.6,27.94.38,27c-.11-.42-.21-.83-.31-1.25a1.68,1.68,0,0,1-.07-.5V25a2,2,0,0,1,.12-.68,2.32,2.32,0,0,0,0-1.58,1.87,1.87,0,0,1-.1-.62v-.62a2.11,2.11,0,0,1,.19-.86,16.83,16.83,0,0,1,.93-4.74l.08-.26a2,2,0,0,1,1.4-1.36,1.79,1.79,0,0,1,.51-.07,2,2,0,0,1,1.38.54l.28.27c.21.19.39.36.56.54l2.48,2.47c2.85,2.84,5.71,5.69,8.54,8.56,2.21-.63,4.42-1.2,6.56-1.75l2.57-.66a2.07,2.07,0,0,1,.5-.06,2,2,0,0,1,1.09.32l.16.09a4,4,0,0,1,.92.67q3.71,3.66,7.36,7.35a2.66,2.66,0,0,1,.48.65,2,2,0,0,1-.23,2.49S34.55,37,34.3,37.23h.21a2,2,0,0,1,1.51.69c1,1.19,2.15,2.28,3.33,3.44.74.72,1.48,1.44,2.19,2.18l2.27,2.36a2,2,0,0,1,0,2.76c-1.55,1.65-3.22,3.39-5.07,5A2,2,0,0,1,37.43,54.18Z"/><path class="Skill-OtherTools-1" d="M90.71,30.57a3,3,0,0,1-.41,0l-.23-.06a1.92,1.92,0,0,1-1-.54L87,27.8l-4.6-4.65q-3.65-3.67-7.33-7.32a2.78,2.78,0,0,1-.94-2,2.74,2.74,0,0,1,.92-2c2.75-2.71,5.63-5.59,9.08-9.06A11.37,11.37,0,0,1,88.87.1a1.87,1.87,0,0,1,.62-.1H92a1.81,1.81,0,0,1,.61.1c3.19,1,5.3,3.28,7.16,5.28a33.74,33.74,0,0,0,2.4,2.39,6.59,6.59,0,0,1,.79.83l.21.24a2,2,0,0,1,.52,1.36c1.13,2.55,1.66,6.35-2.07,10.2-1,1-2,2-3,3-.81.8-1.62,1.6-2.42,2.42-.45.46-.91.9-1.37,1.35a36.09,36.09,0,0,0-2.59,2.7A2,2,0,0,1,90.71,30.57Z"/><path class="Skill-OtherTools-1" d="M2,109.33a2,2,0,0,1-1.2-.4,2,2,0,0,1-.8-1.6v-.62a2,2,0,0,1,.57-1.39,2.38,2.38,0,0,1,.11-.38q1.5-4.44,3-8.9L4.8,92.63A4.35,4.35,0,0,1,5.05,92l.06-.13a2,2,0,0,1,1.43-1.16,2.58,2.58,0,0,1,.4,0,2,2,0,0,1,1.37.55l.48.45,1,.89c.78.76,1.54,1.53,2.3,2.31,1.22,1.24,2.38,2.42,3.63,3.51a2,2,0,0,1,.65,1.21l0,.21a2,2,0,0,1-1.85,2.27l-2.56,1.53c-1.84,1.1-3.74,2.23-5.58,3.38-.28.17-.57.32-.86.47a2.38,2.38,0,0,0-.74.45,2.28,2.28,0,0,1-.39.48,3.51,3.51,0,0,1-1.65.79l-.16,0A1.77,1.77,0,0,1,2,109.33Z"/><path class="Skill-OtherTools-1" d="M2,27l-.35,0A2,2,0,0,1,0,25V22.16a2,2,0,0,1,1.69-2,1.63,1.63,0,0,1,.31,0,2,2,0,0,1,1.9,1.38,6.27,6.27,0,0,1,0,4.19A2,2,0,0,1,2,27Z"/><path class="Skill-OtherTools-1" d="M2,23.54a1.91,1.91,0,0,1-.93-.23A2,2,0,0,1,0,21.54v-.82a2,2,0,0,1,1.93-2h.26a2,2,0,0,1,1,.26,2,2,0,0,1,1,1.62A2.6,2.6,0,0,1,3.13,23.2,2,2,0,0,1,2,23.54Z"/><path class="Skill-OtherTools-1" d="M86.52,109.31a21.29,21.29,0,0,1-3.47-.29A22.25,22.25,0,0,1,66.87,98a21.85,21.85,0,0,1-2.7-15.84c.09-.46.09-.46-.19-.74-2-1.93-4-3.93-6-5.87l-2.25-2.25a2,2,0,0,1,0-2.83l2.72-2.74q3.15-3.18,6.31-6.35c1.32-1.32,2.65-2.63,4-3.95l1.78-1.74a2,2,0,0,1,1.4-.58h0a2,2,0,0,1,1.41.6l4.8,4.91a2,2,0,0,1,.06,2.73l-.21.24c-.2.23-.4.46-.62.68l-5.07,5.08.1.09a10.81,10.81,0,0,0,1.37,1.29,2,2,0,0,1,.81,1.45,2,2,0,0,1-.13.9,2,2,0,0,1,1.63.24,2.68,2.68,0,0,1,.67.49q3.69,3.66,7.35,7.35a3.89,3.89,0,0,1,.67.94l.09.16a2,2,0,0,1,.25,1.58L84.5,86.4C84,88.56,83.38,90.79,82.76,93c2.9,2.87,5.78,5.76,8.67,8.65L93.79,104l.53.57.28.29a2,2,0,0,1-.85,3.28A23.65,23.65,0,0,1,86.52,109.31Z"/><path class="Skill-OtherTools-1" d="M31.25,99.48a2,2,0,0,1-1.63-.84,10,10,0,0,0-1.2-1.29c-.37-.35-.76-.72-1.13-1.14a7.28,7.28,0,0,0-.63-.61,7.14,7.14,0,0,1-1.78-2.17,2,2,0,0,1,.3-2.2l.26-.29c.23-.27.46-.54.71-.79l55.5-55.47c.18-.19.36-.39.53-.59l.3-.33a2,2,0,0,1,2.8-.16l.24.21c.22.19.44.38.64.58.56.52,1.1,1.07,1.63,1.62a32.53,32.53,0,0,0,2.42,2.32,2,2,0,0,1,.7,1.83,3.2,3.2,0,0,1-1.19,2l-.11.1L74.12,57.72l-.44.48-.25.29-1.86,1.83c-1.32,1.3-2.65,2.6-4,3.92-2.11,2.1-4.2,4.22-6.3,6.33l-2.79,2.82-.3.26c-.16.14-.32.28-.47.43S39,92.83,33.62,98.18l-.08.09a3,3,0,0,1-2.21,1.2Z"/><path class="Skill-OtherTools-1" d="M106.31,95a1.74,1.74,0,0,1-.45-.06,3.25,3.25,0,0,1-1.75-1.14l-.09-.1L102.29,92c-3.07-3.06-6.14-6.11-9.18-9.2A.6.6,0,0,0,93,82.7c-2,.56-4,1.08-5.87,1.58L84.38,85l0,0-.29.14a2.08,2.08,0,0,1-.84.18,2,2,0,0,1-1.69-.92q-.11-.16-.21-.36a.75.75,0,0,0-.07-.12q-3.57-3.6-7.16-7.16L74,76.72a2,2,0,0,1-.91-1.45,2,2,0,0,1,.13-1,2.09,2.09,0,0,1-.55.08A2,2,0,0,1,71.45,74a14.83,14.83,0,0,1-1.9-1.74,12.8,12.8,0,0,0-1-1,2.5,2.5,0,0,1-.92-1.9,2.54,2.54,0,0,1,1-1.93l6-6c.15-.15.29-.31.42-.46l.25-.29a2,2,0,0,1,1.43-.67h.07a2,2,0,0,1,1.4.57l1,1c.87.83,1.76,1.68,2.6,2.6l.07,0a22.76,22.76,0,0,1,4.83-.53A21.78,21.78,0,0,1,94,64.94a22.15,22.15,0,0,1,13.11,11.63,22.39,22.39,0,0,1,1.14,17A2,2,0,0,1,106.31,95Z"/><path class="Skill-OtherTools-1" d="M95.47,35.42a2,2,0,0,1-1.43-.6L89.28,30a2,2,0,0,1-.11-2.68,36.16,36.16,0,0,1,2.89-3L93.36,23c.81-.83,1.63-1.65,2.45-2.46,1-1,2-1.93,2.9-2.91,1.84-1.9,2.23-3.7,1.27-5.82A3.42,3.42,0,0,1,99.66,10,2,2,0,0,1,101,8.3a2.09,2.09,0,0,1,.69-.12,2,2,0,0,1,1.4.58l1.2,1.16c.91.87,1.85,1.78,2.73,2.75a8.74,8.74,0,0,1,0,12.16c-2.27,2.42-4.65,4.76-7,7l-2.93,2.9a2.2,2.2,0,0,1-.91.54A2,2,0,0,1,95.47,35.42Z"/><path class="Skill-OtherTools-1" d="M16.68,104.38a2.11,2.11,0,0,1-1.47-.59L13,101.53a2,2,0,0,1-.57-1.14l0-.16a2,2,0,0,1,.94-2l1.09-.65c.95-.57,1.9-1.14,2.84-1.72l8.2-5a2,2,0,0,1,1-.29h.06a2.62,2.62,0,0,1,.43,0,2,2,0,0,1,1.57,1.11,4.13,4.13,0,0,0,.88,1,11.2,11.2,0,0,1,.93.91c.28.32.59.61.89.9a13.39,13.39,0,0,1,1.69,1.85,2,2,0,0,1-.64,2.91l-.11.07a4.77,4.77,0,0,1-.85.42q-6.75,2.27-13.51,4.5a3.13,3.13,0,0,1-.81.15Z"/><path class="Skill-OtherTools-1" d="M88.93,41.87a2,2,0,0,1-1.28-.47,35.54,35.54,0,0,1-2.72-2.6c-.5-.51-1-1-1.51-1.51l-.51-.45-.27-.23A2,2,0,0,1,82,35.52a2.43,2.43,0,0,1,0-.76,2,2,0,0,1,1.19-1.66l.09,0,5.25-5.33.61-.62a2,2,0,0,1,1.43-.59,1.93,1.93,0,0,1,.47,0l.11,0a2,2,0,0,1,1,.56L96.9,32a2,2,0,0,1,0,2.76,67.24,67.24,0,0,1-6.74,6.64A2,2,0,0,1,88.93,41.87Z"/><path class="Skill-OtherTools-1" d="M3,108.94a2,2,0,0,1-1.74-3,5.21,5.21,0,0,1,2.42-2c.18-.09.36-.18.53-.28,1.87-1.17,3.8-2.32,5.66-3.43l2.4-1.43a3.83,3.83,0,0,1,2-.65,2.06,2.06,0,0,1,1.45.59L18,101a2,2,0,0,1-.77,3.31l-3.64,1.23-7.91,2.68c-.49.17-1,.31-1.47.46l-.63.2A2.06,2.06,0,0,1,3,108.94Z"/><path class="Skill-OtherTools-1" d="M21.68,89.58a2.84,2.84,0,0,1-2.12-1.07L18.05,87l-1.67-1.68L11.94,81l-1.48-1.45a2,2,0,0,1-.59-1.65,3.22,3.22,0,0,1,1.24-2.12l.12-.11,24-24c.16-.16.31-.34.46-.51l.27-.32a1.45,1.45,0,0,1,.18-.17c1.72-1.52,3.31-3.19,4.8-4.77,3.76-3.65,6.84-6.69,9.85-9.87l.12-.12.32-.28c.17-.15.35-.3.51-.46L53.94,33q6.57-6.55,13.11-13.13a2.87,2.87,0,0,1,4.53,0C73.76,22,76,24.28,78.19,26.45l2.44,2.44a2,2,0,0,1-.06,2.89l-.32.29-.6.55L24.13,88.11c-.25.24-.52.48-.78.71l-.3.25a2,2,0,0,1-1.33.51Z"/><path class="Skill-OtherTools-1" d="M26.68,94.56h-.2a2.06,2.06,0,0,1-1.4-.58l-.79-.77c-.65-.64-1.31-1.28-1.93-1.94-.19-.2-.39-.38-.59-.57a7.1,7.1,0,0,1-1.85-2.24,2,2,0,0,1,.47-2.36l.34-.3c.2-.17.39-.33.57-.51L76.83,29.79c.24-.24.49-.47.75-.7l.29-.26a2,2,0,0,1,2.75.05l4.73,4.63a2.21,2.21,0,0,1,.09,2.94l-.26.29c-.23.26-.46.52-.7.76L29,93a6.52,6.52,0,0,0-.5.55l-.3.35A2,2,0,0,1,26.68,94.56Z"/><path class="Skill-OtherTools-1" d="M14.34,101.93a2,2,0,0,1-1.32-.5c-1.35-1.2-2.61-2.48-3.83-3.72C8.45,97,7.72,96.21,7,95.49l-.9-.86-.5-.46A2,2,0,0,1,5,92.1l.63-2c.47-1.49.94-3,1.45-4.47.66-2,1.34-3.9,2-5.85L10,77.44a2,2,0,0,1,1.44-1.29,2.3,2.3,0,0,1,.45-.05,2,2,0,0,1,1.4.57l1.48,1.45c1.48,1.46,3,2.91,4.44,4.37.57.56,1.14,1.12,1.7,1.69l1.43,1.42.09.1a2,2,0,0,1,1.12,1,4.37,4.37,0,0,0,.93,1c.29.26.57.52.83.79.58.63,1.19,1.22,1.8,1.81l.81.79a2,2,0,0,1,.58,1.66,2,2,0,0,1-.95,1.47l-8.2,5L16.46,101l-1.08.65A2,2,0,0,1,14.34,101.93Z"/><path class="Skill-OtherTools-1" d="M33.15,41.78a3.81,3.81,0,0,1-3.7-3.37,4,4,0,0,1,1.13-3c.52-.59,1.08-1.15,1.63-1.72l.67-.69.75-.73c.54-.51,1.07-1,1.62-1.54a4.19,4.19,0,0,1,2.89-1.26,3.62,3.62,0,0,1,2.65,1.2A3.73,3.73,0,0,1,40.48,36q-1.62,1.66-3.26,3.31l-1.29,1.3-.19.17A4.21,4.21,0,0,1,33.15,41.78Z"/><path class="Skill-OtherTools-1" d="M71.25,79.91a3.57,3.57,0,0,1-2.51-1.07,3.5,3.5,0,0,1-1.14-2.93A4.54,4.54,0,0,1,69,73.25L71.2,71l.68-.67,1.58-1.54a4.14,4.14,0,0,1,2.83-1.21,3.57,3.57,0,0,1,2.47,1,3.72,3.72,0,0,1,0,5.46c-.53.57-1.07,1.13-1.61,1.69l-.69.71-2.19,2.11A4.37,4.37,0,0,1,71.25,79.91Z"/></g><g id="hfT0Lv.tif-2" data-name="hfT0Lv.tif"><path class="Skill-OtherTools-2" d="M76.44,13.28c-.47.46-.4.71,0,1.13,2.47,2.43,4.91,4.88,7.35,7.33l6.72,6.79q-3.06,3.11-6.13,6.2a1.55,1.55,0,0,1-.45.21L79.22,30.3c-3-3-6.09-6-9.07-9.11-.7-.72-1.05-.59-1.68,0C63.37,26.37,79.49,10.28,76.44,13.28Z"/><path class="Skill-OtherTools-3" d="M25.27,2.19A20.84,20.84,0,0,1,43.13,27.57a1,1,0,0,0,.26,1.09c3,2.91,5.88,5.83,8.82,8.75C49,40.79,45.7,44,42.37,47.28c-.76-.79-1.52-1.57-2.27-2.36-1.85-1.92-3.85-3.69-5.59-5.7,1.51-1.54,3-3.07,4.55-4.61.89-.91,1-1.87.27-2.63s-1.76-.74-2.72.16c-.77.72-1.53,1.47-2.29,2.2A1.66,1.66,0,0,0,34.1,34l-7.35-7.34a4.42,4.42,0,0,0-.77-.5,4.22,4.22,0,0,0,.3-.65c.78-3,1.52-6,2.35-8.9a1.36,1.36,0,0,0-.43-1.53c-3.65-3.61-7.27-7.25-10.91-10.87a9,9,0,0,0-1.15-.85,12.78,12.78,0,0,1,4.57-1.18C21,2.21,23.27,2,24.23,2,24.53,2.32,24.92,2.18,25.27,2.19Z"/><path class="Skill-OtherTools-4" d="M26,26.16a4.42,4.42,0,0,1,.77.5L34.1,34a1.66,1.66,0,0,1,.22.34c-.75.78-1.53,1.55-2.26,2.36a1.71,1.71,0,0,0,0,2.68,1.78,1.78,0,0,0,2.41-.16c1.74,2,3.74,3.78,5.59,5.7.75.79,1.51,1.57,2.27,2.36-1.59,1.69-3.2,3.36-4.94,4.9-2.93-2.94-5.86-5.87-8.77-8.83a1.07,1.07,0,0,0-1.2-.22,20.37,20.37,0,0,1-11.82-.79A20.28,20.28,0,0,1,3.06,29.26c-.43-1.31-.71-2.67-1.06-4V25a4.31,4.31,0,0,0,0-2.88v-.62c.32-.22.21-.54.19-.83a16.49,16.49,0,0,1,.92-4.46c.32.3.57.52.81.76Q9.46,22.53,15,28.07a1.56,1.56,0,0,0,1.78.52C19.81,27.72,22.9,27,26,26.16Z"/><path class="Skill-OtherTools-5" d="M90.53,28.53l-6.72-6.79c-2.44-2.45-4.88-4.9-7.35-7.33-.42-.42-.49-.67,0-1.13q4.57-4.5,9.1-9.07A9.5,9.5,0,0,1,89.49,2H92c3.91,1.26,6,4.79,8.86,7.29a10,10,0,0,1,.83.89,1.45,1.45,0,0,0,.15.79c1.39,3.08.59,5.72-1.65,8-1.76,1.82-3.59,3.57-5.36,5.38-1.37,1.39-2.84,2.67-4.08,4.18Z"/><path class="Skill-OtherTools-6" d="M2,106.71c.47-.23.44-.74.57-1.13C4,101.48,5.32,97.37,6.7,93.27c.06-.19.16-.37.24-.56l1.41,1.34c2,1.94,3.89,4,6,5.88l0,.19a2,2,0,0,0-1,.36c-2.68,1.61-5.38,3.19-8,4.84-.78.49-1.76.74-2.27,1.62a2.45,2.45,0,0,1-1,.39Z"/><path class="Skill-OtherTools-3" d="M2,22.16A4.31,4.31,0,0,1,2,25Z"/><path class="Skill-OtherTools-3" d="M2,20.72a.25.25,0,0,0,.19,0c0,.29.13.61-.19.83Z"/><path class="Skill-OtherTools-4" d="M83.22,83.36c-.8,3.08-1.56,6.17-2.43,9.23a1.56,1.56,0,0,0,.52,1.78q5.55,5.49,11.06,11c.24.24.47.49.77.81A20.81,20.81,0,0,1,68.59,97a19.92,19.92,0,0,1-2.46-14.43A2.43,2.43,0,0,0,65.36,80c-2.78-2.65-5.47-5.39-8.19-8.1q4.52-4.55,9-9.09C68.1,60.92,70,59,72,57.14l4.8,4.91c-.25.28-.49.57-.75.83l-5.93,5.94c-.27.27-.7.49-.18,1,1,.83,1.72,1.85,2.74,2.6-.74.75-1.48,1.5-2.21,2.26-1,1-1.1,2-.29,2.77s1.75.65,2.77-.33L75,75a2.54,2.54,0,0,1,.34.23q3.68,3.66,7.34,7.34A4.34,4.34,0,0,1,83.22,83.36Z"/><path class="Skill-OtherTools-7" d="M72,57.14C70,59,68.1,60.92,66.19,62.82q-4.52,4.53-9,9.09c-.28.25-.56.49-.83.76L32.21,96.77c-.28.28-.49.69-1,.71a33.45,33.45,0,0,0-2.46-2.59,11.68,11.68,0,0,1-2.11-2.33c.3-.34.57-.69.89-1L83.06,36.09c.32-.31.6-.66.9-1l.83.74c1.4,1.32,2.66,2.79,4.14,4-.07.45-.45.67-.73,1q-7.74,7.76-15.49,15.49C72.44,56.58,72.2,56.86,72,57.14Z"/><path class="Skill-OtherTools-3" d="M83.22,83.36a4.34,4.34,0,0,0-.5-.76q-3.66-3.69-7.34-7.34A2.54,2.54,0,0,0,75,75c.76-.79,1.53-1.56,2.27-2.37a1.74,1.74,0,1,0-2.47-2.43c-.75.7-1.48,1.43-2.21,2.15-1-.75-1.79-1.77-2.74-2.6-.52-.47-.09-.69.18-1L76,62.88c.26-.26.5-.55.75-.83,1.2,1.17,2.44,2.3,3.57,3.54a1.8,1.8,0,0,0,2,.57,19.8,19.8,0,0,1,11,.67,20.16,20.16,0,0,1,12,10.6,20.38,20.38,0,0,1,1,15.57c-.42-.1-.61-.45-.87-.71-3.65-3.63-7.3-7.25-10.9-10.91a1.79,1.79,0,0,0-2.05-.6c-2.86.81-5.75,1.53-8.62,2.29A3.79,3.79,0,0,0,83.22,83.36Z"/><path class="Skill-OtherTools-8" d="M90.71,28.57c1.24-1.51,2.71-2.79,4.08-4.18,1.77-1.81,3.6-3.56,5.36-5.38,2.24-2.32,3-5,1.65-8a1.45,1.45,0,0,1-.15-.79c1.28,1.27,2.63,2.49,3.84,3.83a6.72,6.72,0,0,1,0,9.45c-3.18,3.39-6.55,6.6-9.84,9.88,0,0-.12.06-.18.08C93.88,31.8,92.29,30.19,90.71,28.57Z"/><path class="Skill-OtherTools-9" d="M26.68,92.56a11.68,11.68,0,0,0,2.11,2.33,33.45,33.45,0,0,1,2.46,2.59,4.12,4.12,0,0,1-.62.33l-13.5,4.5a2.74,2.74,0,0,1-.5.07l-2.26-2.26,0-.19,3.94-2.38q4.11-2.49,8.2-5A.66.66,0,0,1,26.68,92.56Z"/><path class="Skill-OtherTools-10" d="M90.71,28.57c1.58,1.62,3.17,3.23,4.76,4.85a66.37,66.37,0,0,1-6.54,6.45c-1.48-1.24-2.74-2.71-4.14-4L84,35.1a.43.43,0,0,1,0-.16,1.55,1.55,0,0,0,.45-.21q3.07-3.09,6.13-6.2Z"/><path class="Skill-OtherTools-8" d="M14.37,100.12l2.26,2.26L5.08,106.3c-.68.23-1.37.42-2.05.64.51-.88,1.49-1.13,2.27-1.62,2.65-1.65,5.35-3.23,8-4.84A2,2,0,0,1,14.37,100.12Z"/><path class="Skill-OtherTools-11" d="M37.43,52.18c1.74-1.54,3.35-3.21,4.94-4.9C45.7,44,49,40.79,52.21,37.41c.31-.27.63-.53.92-.82q7.68-7.67,15.34-15.35c.63-.64,1-.77,1.68,0,3,3.08,6,6.08,9.07,9.11-.33.3-.67.59-1,.91L22.71,86.69c-.31.31-.66.59-1,.89-.39,0-.58-.32-.82-.56-1-1-2.07-2.08-3.12-3.11L11.86,78.1c.06-.5.48-.73.78-1l24-24C36.9,52.81,37.16,52.49,37.43,52.18Z"/><path class="Skill-OtherTools-12" d="M21.72,87.58c.33-.3.68-.58,1-.89L78.24,31.21c.31-.32.65-.61,1-.91L84,34.94a.43.43,0,0,0,0,.16c-.3.33-.58.68-.9,1L27.57,91.56c-.32.31-.59.66-.89,1a.66.66,0,0,0-.2,0c-.89-.89-1.81-1.74-2.66-2.66A10.25,10.25,0,0,1,21.72,87.58Z"/><path class="Skill-OtherTools-13" d="M21.72,87.58a10.25,10.25,0,0,0,2.1,2.31c.85.92,1.77,1.77,2.66,2.66q-4.1,2.51-8.2,5l-3.94,2.38c-2.1-1.86-4-3.94-6-5.88L6.94,92.71C7.62,90.57,8.28,88.43,9,86.3c.93-2.74,1.91-5.47,2.86-8.2l5.92,5.81c1,1,2.08,2.08,3.12,3.11C21.14,87.26,21.33,87.57,21.72,87.58Z"/><path class="Skill-OtherTools-14" d="M34.51,39.22a1.78,1.78,0,0,1-2.41.16,1.71,1.71,0,0,1,0-2.68c.73-.81,1.51-1.58,2.26-2.36s1.52-1.48,2.29-2.2c1-.9,2-.95,2.72-.16s.62,1.72-.27,2.63C37.55,36.15,36,37.68,34.51,39.22Z"/><path class="Skill-OtherTools-14" d="M72.63,72.38c.73-.72,1.46-1.45,2.21-2.15a1.74,1.74,0,1,1,2.47,2.43c-.74.81-1.51,1.58-2.27,2.37l-2.14,2c-1,1-2,1.1-2.77.33s-.71-1.73.29-2.77C71.15,73.88,71.89,73.13,72.63,72.38Z"/></g></g></g></svg>