<svg xmlns="http://www.w3.org/2000/svg" viewBox="0 0 122.82 111.27"><defs><style>.Skill-BE-1{fill:#c2a890;}.Skill-BE-2{fill:#2d2d36;}.Skill-BE-3{fill:#41414d;}.Skill-BE-4{fill:#4e4e5b;}.Skill-BE-5{fill:#ffd100;}.Skill-BE-6{fill:#8dc000;}.Skill-BE-7{fill:#6fd6f4;}</style></defs><g id="圖層_2" data-name="圖層 2"><g id="圖層_1-2" data-name="圖層 1"><rect class="Skill-BE-1" x="19.55" y="28.71" width="82.61" height="53.84" rx="2"/><path class="Skill-BE-1" d="M18.09,36.18A18.09,18.09,0,0,1,18.09,0h86.64a18.09,18.09,0,0,1,0,36.18Z"/><path class="Skill-BE-1" d="M94.11,36.18H21.65C9.71,36.18,0,28.07,0,18.09S9.71,0,21.65,0a2,2,0,0,1,0,4C11.92,4,4,10.32,4,18.09s7.92,14.09,17.65,14.09H94.11c9.18,0,16.64-6.32,16.64-14.09S103.29,4,94.11,4a2,2,0,0,1,0-4c11.38,0,20.64,8.12,20.64,18.09S105.49,36.18,94.11,36.18Z"/><ellipse class="Skill-BE-1" cx="82.9" cy="18.17" rx="7.21" ry="7.03"/><path class="Skill-BE-1" d="M96.74,25.21a7.13,7.13,0,0,1-7.21-7,7.21,7.21,0,0,1,14.42,0A7.13,7.13,0,0,1,96.74,25.21Z"/><path class="Skill-BE-1" d="M22.08,24a5.55,5.55,0,0,1,0-11.1H63.35a5.55,5.55,0,1,1,0,11.1Z"/><path class="Skill-BE-1" d="M18.09,73.72a18.09,18.09,0,0,1,0-36.18h86.64a18.09,18.09,0,0,1,0,36.18Z"/><path class="Skill-BE-1" d="M94.11,73.72H21.65C9.71,73.72,0,65.61,0,55.63S9.71,37.54,21.65,37.54a2,2,0,0,1,0,4C11.92,41.54,4,47.86,4,55.63s7.92,14.09,17.65,14.09H94.11c9.18,0,16.64-6.32,16.64-14.09s-7.46-14.09-16.64-14.09a2,2,0,0,1,0-4c11.38,0,20.64,8.12,20.64,18.09S105.49,73.72,94.11,73.72Z"/><ellipse class="Skill-BE-1" cx="82.9" cy="55.72" rx="7.21" ry="7.03"/><path class="Skill-BE-1" d="M96.74,62.75a7,7,0,1,1,7.21-7A7.13,7.13,0,0,1,96.74,62.75Z"/><path class="Skill-BE-1" d="M22.08,61.51a5.55,5.55,0,1,1,0-11.09H63.35a5.55,5.55,0,1,1,0,11.09Z"/><path class="Skill-BE-1" d="M18.09,111.27a18.09,18.09,0,0,1,0-36.18h86.64a18.09,18.09,0,0,1,0,36.18Z"/><path class="Skill-BE-1" d="M94.11,111.27H21.65C9.71,111.27,0,103.15,0,93.18S9.71,75.09,21.65,75.09a2,2,0,1,1,0,4C11.92,79.09,4,85.41,4,93.18s7.92,14.09,17.65,14.09H94.11c9.18,0,16.64-6.32,16.64-14.09s-7.46-14.09-16.64-14.09a2,2,0,1,1,0-4c11.38,0,20.64,8.11,20.64,18.09S105.49,111.27,94.11,111.27Z"/><path class="Skill-BE-1" d="M82.9,100.29a7,7,0,1,1,7.21-7A7.13,7.13,0,0,1,82.9,100.29Z"/><path class="Skill-BE-1" d="M96.74,100.29a7,7,0,1,1,7.21-7A7.12,7.12,0,0,1,96.74,100.29Z"/><path class="Skill-BE-1" d="M22.08,99.06a5.55,5.55,0,1,1,0-11.1H63.35a5.55,5.55,0,0,1,0,11.1Z"/><rect class="Skill-BE-2" x="21.55" y="30.71" width="78.61" height="49.84"/><rect class="Skill-BE-3" x="2" y="2" width="118.82" height="32.18" rx="16.09"/><path class="Skill-BE-4" d="M94.11,2c10.29,0,18.64,7.2,18.64,16.09S104.4,34.18,94.11,34.18H21.65C10.8,34.18,2,27,2,18.09H2C2,9.2,10.8,2,21.65,2"/><ellipse class="Skill-BE-5" cx="82.9" cy="18.17" rx="5.21" ry="5.03"/><ellipse class="Skill-BE-6" cx="96.74" cy="18.17" rx="5.21" ry="5.03"/><rect class="Skill-BE-7" x="18.53" y="14.87" width="48.37" height="7.1" rx="3.55"/><rect class="Skill-BE-3" x="2" y="39.54" width="118.82" height="32.18" rx="16.09"/><path class="Skill-BE-4" d="M94.11,39.54c10.29,0,18.64,7.21,18.64,16.09S104.4,71.72,94.11,71.72H21.65C10.8,71.72,2,64.52,2,55.63H2c0-8.88,8.8-16.09,19.65-16.09"/><ellipse class="Skill-BE-5" cx="82.9" cy="55.72" rx="5.21" ry="5.03"/><ellipse class="Skill-BE-6" cx="96.74" cy="55.72" rx="5.21" ry="5.03"/><rect class="Skill-BE-7" x="18.53" y="52.42" width="48.37" height="7.1" rx="3.55"/><rect class="Skill-BE-3" x="2" y="77.09" width="118.82" height="32.18" rx="16.09"/><path class="Skill-BE-4" d="M94.11,77.09c10.29,0,18.64,7.2,18.64,16.09s-8.35,16.09-18.64,16.09H21.65C10.8,109.27,2,102.06,2,93.18H2c0-8.89,8.8-16.09,19.65-16.09"/><ellipse class="Skill-BE-5" cx="82.9" cy="93.26" rx="5.21" ry="5.03"/><ellipse class="Skill-BE-6" cx="96.74" cy="93.26" rx="5.21" ry="5.03"/><rect class="Skill-BE-7" x="18.53" y="89.96" width="48.37" height="7.1" rx="3.55"/></g></g></svg>