<svg xmlns="http://www.w3.org/2000/svg" viewBox="0 0 133.31 107.43"><defs><style>.Skill-UI-1{fill:#c2a890;}.Skill-UI-2{fill:#fefefe;}.Skill-UI-3{fill:#5c5b69;}.Skill-UI-4{fill:#4f4f5a;}.Skill-UI-5{fill:#dfdeeb;}.Skill-UI-6{fill:#c7c6d5;}.Skill-UI-7{fill:#656472;}.Skill-UI-8{fill:#707182;}</style></defs><g id="圖層_2" data-name="圖層 2"><g id="圖層_1-2" data-name="圖層 1"><rect class="Skill-UI-1" x="3.3" y="43.35" width="50.9" height="54.66" rx="2"/><rect class="Skill-UI-1" x="17.67" y="4.27" width="102.82" height="67.6" rx="2"/><rect class="Skill-UI-1" x="92.47" y="51.46" width="37.58" height="48.07" rx="2"/><path class="Skill-UI-1" d="M98.11,107.21c-6.59-.61-7.92-4.35-7.94-10.19,0-2.45,0-13.34,0-23.64v-7c0-5.15,0-11.56,0-12.88.09-3.8,1.35-6.26,3.85-7.53a6.56,6.56,0,0,1,3-.7h29a2,2,0,0,1,1.8,2.86l-4.16,8.69a2,2,0,0,1-1.79,1.14c-2.8,0-5.59,0-8.39,0-4.66,0-9.48,0-14.32-.08h0a2.23,2.23,0,0,0-.92.11,3.64,3.64,0,0,0-.1,1.08c.06,10.71.06,21.47,0,32a2.88,2.88,0,0,0,.12,1.1h0a4.16,4.16,0,0,0,.78.07l4.47,0h0a2,2,0,0,1,1.69.93,2,2,0,0,1,.12,1.94l-5.29,11a2,2,0,0,1-1.8,1.13Z"/><path class="Skill-UI-1" d="M92.16,75.38a2,2,0,0,1-2-2v-7a2,2,0,0,1,2-2h0a2,2,0,0,1,2,2v7a2,2,0,0,1-2,2Z"/><path class="Skill-UI-1" d="M111.46,107.43c-4.31,0-8.12-.05-11.65-.13-.61,0-1.17,0-1.7-.09a2,2,0,0,1-1.55-1,2,2,0,0,1-.07-1.85l5.29-11a2,2,0,0,1,1.79-1.14q4.59,0,9.2,0,5.72,0,11.43,0h0a2.64,2.64,0,0,0,1-.11,4.42,4.42,0,0,0,.06-1c-.11-5.28-.1-26.63,0-32a3.07,3.07,0,0,0-.11-1.09h0a3.65,3.65,0,0,0-.83-.08l-2.37,0a2,2,0,0,1-1.81-2.87l4.16-8.68a2,2,0,0,1,1.81-1.14h.41a6.56,6.56,0,0,1,3.36.89c2.28,1.36,3.4,3.88,3.42,7.71,0,11.43.08,42,0,45.39a8,8,0,0,1-8.07,8.1C120.94,107.38,116.12,107.43,111.46,107.43Z"/><path class="Skill-UI-1" d="M116,49.24a2,2,0,0,1-2-2V37.05c0-4.31,0-8.64,0-13V14.64c0-3.51-.38-3.87-4-3.88H27.59c-3.37,0-3.91.25-3.93,3.65,0,.23,0,26.22,0,26.22a2,2,0,0,1-2,2H14.87a2,2,0,0,1-2-2l0-26.33C13.2,4.66,18.09,0,27.87,0h82.34c9.38,0,14.4,5,14.5,14.27a1.47,1.47,0,0,1,0,.36v32.6a2,2,0,0,1-2,2Z"/><path class="Skill-UI-1" d="M17.72,42.63a2,2,0,1,1,0-4h3.9a2,2,0,0,1,0,4Z"/><path class="Skill-UI-1" d="M54,85.8a2,2,0,0,1-1.41-.58A2,2,0,0,1,52,83.8V66.35h4v5H92.16a2,2,0,0,1,2,2V83.81a2,2,0,0,1-2,2Z"/><path class="Skill-UI-1" d="M54,75.38a2,2,0,0,1-2-2v-7a2,2,0,0,1,2-2h38.2a2,2,0,0,1,2,2v7a2,2,0,0,1-2,2Z"/><path class="Skill-UI-1" d="M71.1,102.43l-17.14,0a2,2,0,0,1-2-2V94.76a2,2,0,0,1,.92-1.68A9.27,9.27,0,0,0,56.74,88l0-.11a2,2,0,0,1,1.89-1.37H79a2,2,0,0,1,1.84,1.22L81,88a12.41,12.41,0,0,0,7.76,6.49,7.11,7.11,0,0,0,.72.14c1,.15,3.91.62,3.67,4.06-.09,1.38-.8,3.69-4.42,3.69h-.85Z"/><path class="Skill-UI-1" d="M53.77,102.41a2,2,0,0,1-2-2.41s.07-.29.09-.42,0-.23.06-.33V94.76a2,2,0,0,1,.8-1.6,2,2,0,0,1,1.2-.4,2.07,2.07,0,0,1,.77.15A2,2,0,0,1,56,94.76v5.65a2,2,0,0,1-2,2Z"/><path class="Skill-UI-1" d="M53.88,101.89a2.19,2.19,0,0,1-.36,0,2,2,0,0,1-1.61-2.33c0-.13.05-.26.06-.4a2,2,0,0,1,2-1.73l.27,0a2,2,0,0,1,1.72,2.25q0,.3-.09.57A2,2,0,0,1,53.88,101.89Z"/><path class="Skill-UI-1" d="M53.77,102.41a2.49,2.49,0,0,1-.46,0A2,2,0,0,1,51.82,100c0-.12.06-.24.08-.37a2,2,0,0,1,2-1.62,1.64,1.64,0,0,1,.38,0,2,2,0,0,1,1.59,2.34c0,.18-.07.35-.11.53A2,2,0,0,1,53.77,102.41Z"/><path class="Skill-UI-1" d="M58.67,90.49a2,2,0,0,1-1.9-2.62c.12-.35.22-.72.31-1.09a13.94,13.94,0,0,0,.33-3,2,2,0,0,1,2-2H77.77a2,2,0,0,1,2,1.84,14,14,0,0,0,1.06,4A2,2,0,0,1,79,90.49Z"/><path class="Skill-UI-1" d="M8.27,107.3C2.41,106.93,0,104.14,0,97.66Q0,72.84,0,48c0-6.87,2.43-9.32,9.27-9.36H46.7c.76,0,1.44,0,2.07.09a2,2,0,0,1,1.62,2.85l-4.15,8.71a2,2,0,0,1-1.79,1.14q-7.56,0-15.13,0c-6.66,0-13.42,0-20.09-.09h0a2.52,2.52,0,0,0-1.12.14A4,4,0,0,0,8,52.66C8.09,64.41,8.09,77,8,91a2.77,2.77,0,0,0,.12,1.11h0a4.28,4.28,0,0,0,.83.07l6.22,0a2,2,0,0,1,1.71,3L10.1,106.35a2,2,0,0,1-1.71,1Z"/><path class="Skill-UI-1" d="M20.92,42.63a2,2,0,0,1,0-4h.7a2,2,0,0,1,0,4Z"/><path class="Skill-UI-1" d="M54,89.54a2,2,0,0,1-2-2V59.43a2,2,0,0,1,2-2h0a2,2,0,0,1,2,2c0,8.46,0,19.71,0,28.11a2,2,0,0,1-2,2Z"/><path class="Skill-UI-1" d="M26.23,107.36H9.84c-.56,0-1.08,0-1.57,0a2,2,0,0,1-1.58-3L13.5,93.15a2,2,0,0,1,1.69-1q9.06,0,18.11,0,7.05,0,14.1,0h0l.46,0a7.58,7.58,0,0,0,0-.79c-.08-4.65-.07-9.38-.05-13.94,0-1.82,0-3.63,0-5.44s0-3.67,0-5.5c0-4.55,0-9.25.06-13.88a2.65,2.65,0,0,0-.11-1.1h0a5.25,5.25,0,0,0-1.07-.09H44.44a2,2,0,0,1-1.81-2.86l4.15-8.71a2,2,0,0,1,1.8-1.14h.19c6.2.6,7.1,4.7,7.16,9,0,1.66,0,7.27,0,11.68v40a2.45,2.45,0,0,1,0,.27c-.95,6.88-6.21,7.68-10.09,7.68Z"/><path class="Skill-UI-1" d="M26.48,103.54a4,4,0,1,1,0-8h2.46a4,4,0,0,1,0,8Z"/><rect class="Skill-UI-1" x="106.45" y="96.12" width="9.89" height="7.46" rx="3.66"/><rect class="Skill-UI-2" x="5.3" y="45.35" width="46.9" height="50.66"/><rect class="Skill-UI-2" x="19.67" y="6.27" width="98.82" height="63.6"/><rect class="Skill-UI-2" x="94.47" y="53.46" width="33.58" height="44.07"/><path class="Skill-UI-3" d="M97.06,47.24a4.58,4.58,0,0,0-2.09.48c-1.86.94-2.68,2.79-2.76,5.8,0,1.14,0,6.36,0,12.83h0v7h0c0,10.29,0,21.18,0,23.64,0,5.65,1.3,7.75,6.13,8.19l5.28-11-4.37,0c-2.39,0-3-1-3-3.19q.11-16,0-32c0-2.22.69-3.23,3-3.2q11.34.12,22.67,0l4.17-8.69Z"/><path class="Skill-UI-3" d="M92.16,66.35h0v7h0Z"/><path class="Skill-UI-4" d="M125.17,105.33a6,6,0,0,0,6.09-6.15c.09-3.33.05-33.56,0-45.34,0-3-.76-5-2.44-6a4.57,4.57,0,0,0-2.34-.61h-.41l-4.17,8.69,2.3,0c2.37,0,3.07,1,3,3.2-.1,5.44-.11,26.75,0,32,.05,2.28-.73,3.16-3.06,3.13q-10.31-.11-20.6,0l-5.28,11c.48.05,1,.08,1.55.09C108.29,105.5,116.73,105.42,125.17,105.33Z"/><path class="Skill-UI-3" d="M122.72,14.64v-.11C122.7,6.22,118.51,2,110.21,2,96.43,2,82.65,2,68.87,2h-41c-8.67,0-12.71,3.8-13,12.3l0,26.33h6.75c0-7.5,0-26,0-26.24,0-4.39,1.37-5.62,5.92-5.63q20.69,0,41.36,0c13.68,0,27.35,0,41,0,4.73,0,6,1.25,6,5.88V21c0,5.35,0,10.71,0,16.06V47.24h6.78V14.64Z"/><path class="Skill-UI-3" d="M21.62,40.63h0Z"/><path class="Skill-UI-5" d="M54,66.35h0c0,5.71,0,12,0,17.45h38.2V73.38H54Z"/><path class="Skill-UI-3" d="M54,66.35v7H92.16v-7H69.09Z"/><path class="Skill-UI-5" d="M88.12,96.43a14.47,14.47,0,0,1-8.94-7.52c-.05-.1-.1-.21-.14-.31a.37.37,0,0,1-.05-.11H58.67l0,.11A11.31,11.31,0,0,1,54,94.76v5.65q17,0,33.88,0c1.38,0,3.15.27,3.3-1.82S89.45,96.87,88.12,96.43Z"/><path class="Skill-UI-5" d="M54,100.41V94.76h0V99.4h0c0,.17-.05.33-.08.49l0,.07c0,.15-.06.3-.09.45H54Z"/><path class="Skill-UI-5" d="M54,99.4c0,.17-.05.33-.08.49C53.91,99.73,53.93,99.57,54,99.4Z"/><path class="Skill-UI-5" d="M53.77,100.41c0-.15.07-.3.09-.45Z"/><path class="Skill-UI-6" d="M77.77,83.81H59.41A16.53,16.53,0,0,1,59,87.24a12.07,12.07,0,0,1-.36,1.25H79A16.1,16.1,0,0,1,77.77,83.81Z"/><path class="Skill-UI-3" d="M20.92,40.63H9.29C3.6,40.66,2,42.25,2,48Q2,72.83,2,97.66C2,103,3.53,105,8.39,105.3L15.2,94.19,9,94.22c-2.38,0-3-1-3-3.2q.11-19.17,0-38.35c0-2.43.74-3.31,3.24-3.28q17.6.15,35.19,0l4.14-8.71c-.57-.05-1.2-.08-1.88-.08H20.92Z"/><path class="Skill-UI-3" d="M21.62,40.63Z"/><path d="M54,59.43V87.54C54,79.14,54,67.89,54,59.43Z"/><path class="Skill-UI-4" d="M53.93,47.78c-.06-4.84-1.36-6.68-5.35-7.07l-4.14,8.71H46.6c2.46,0,3.33.74,3.28,3.23-.13,6.44,0,12.89,0,19.34s-.07,12.9,0,19.34c0,1.92-.29,2.86-2.49,2.85q-16.1-.06-32.19,0L8.39,105.3c.46,0,.94,0,1.45,0q18,0,36,0c5.12,0,7.53-1.74,8.11-5.95v-40C54,53.65,53.94,49.18,53.93,47.78Z"/><rect class="Skill-UI-7" x="24.47" y="97.52" width="6.48" height="4.02" rx="2.01"/><rect class="Skill-UI-8" x="108.45" y="98.11" width="5.89" height="3.46" rx="1.66"/></g></g></svg>