<svg xmlns="http://www.w3.org/2000/svg" viewBox="0 0 122.67 106.97"><defs><style>.Skill-JS-1{fill:#c2a890;}.Skill-JS-2{fill:#ffc600;}.Skill-JS-3{fill:#4e4e5b;}</style></defs><g id="圖層_2" data-name="圖層 2"><g id="圖層_1-2" data-name="圖層 1"><rect class="Skill-JS-1" width="122.67" height="106.97" rx="21.48"/><g id="xXCCOT"><path class="Skill-JS-1" d="M85,88.85c-8.17-.41-14.06-3.51-18-9.47A4.12,4.12,0,0,1,66.19,76a3.73,3.73,0,0,1,2.18-2.27,2.7,2.7,0,0,1,.33-.22c.45-.26.9-.57,1.39-.9a11.34,11.34,0,0,1,4.27-2.07,4.81,4.81,0,0,1,.74-.06c2.13,0,3.3,1.61,4.07,2.68a5.66,5.66,0,0,0,.92,1.08A8.15,8.15,0,0,0,84.91,76a8.5,8.5,0,0,0,3-.6A2.66,2.66,0,0,0,90,73a2.44,2.44,0,0,0-1.39-2.63c-2-1.09-4-2.14-6-3.16-1.25-.64-2.49-1.29-3.73-1.94-2.9-1.53-6.87-3.63-8.8-8A16.92,16.92,0,0,1,70.6,42c2.47-4.24,6.82-6.86,12.26-7.39.84-.08,1.66-.12,2.44-.12A16.17,16.17,0,0,1,99,41.17a4.45,4.45,0,0,1,1.06,3.67,4.25,4.25,0,0,1-2.42,2.66,4.93,4.93,0,0,0-.53.34l-.49.34c-.33.21-.65.45-1,.7a10,10,0,0,1-3.21,1.79,4,4,0,0,1-1,.14,4,4,0,0,1-3.35-2.21,4.45,4.45,0,0,0-.47-.63,5.14,5.14,0,0,0-2.73-.91,3,3,0,0,0-1.87.61,2.32,2.32,0,0,0-1,1.92,3,3,0,0,0,1.44,2.33,42.27,42.27,0,0,0,6.87,3.66c1.37.62,2.8,1.27,4.18,2a16.68,16.68,0,0,1,8.81,18.9c-1.55,6.63-6.84,11-14.52,12-.72.1-1.43.15-2.26.22l-1.26.1H85Z"/><path class="Skill-JS-1" d="M47.71,88.7a24.72,24.72,0,0,1-4.61-.45,16.13,16.13,0,0,1-10.91-7.51,4.55,4.55,0,0,1-.86-3.7,3.94,3.94,0,0,1,2.42-2.37,3.87,3.87,0,0,0,.57-.36c.19-.14.39-.27.59-.4.37-.22.73-.49,1.09-.75a8.61,8.61,0,0,1,3.77-1.88,3.35,3.35,0,0,1,.54,0c2.07,0,3,1.72,3.53,2.65a4.36,4.36,0,0,0,.52.82,4.22,4.22,0,0,0,2.8,1.16,4.81,4.81,0,0,0,1.35-.22c.78-.23,1.61-.65,1.66-2.76.1-4.37.16-9,.18-14.59V56c0-5.35.06-10.88,0-16.32a4.71,4.71,0,0,1,1.1-3.5,4,4,0,0,1,2.94-1.09,6.8,6.8,0,0,1,.76,0c.65.06,1.29.09,1.9.09a16.77,16.77,0,0,0,1.77-.09,8.21,8.21,0,0,1,1-.06,4.18,4.18,0,0,1,3.13,1.16A5.16,5.16,0,0,1,64,40c-.11,4-.09,8-.07,11.9,0,1.61,0,3.23,0,4.84a1.58,1.58,0,0,1,0,.38v4.47c0,3.58,0,7.15,0,10.73a16.21,16.21,0,0,1-4.4,11.85A16.28,16.28,0,0,1,47.71,88.7Z"/></g><rect class="Skill-JS-2" x="2" y="2" width="118.67" height="102.97" rx="19.48"/><g id="xXCCOT-2" data-name="xXCCOT"><path class="Skill-JS-3" d="M85.06,86.85c-6.56-.33-12.45-2.55-16.45-8.57-.87-1.31-.74-2.14.69-2.77a3.42,3.42,0,0,0,.4-.26c1.66-1,3.24-2.42,5-2.73,2.1-.37,2.72,2.28,4.22,3.36a9.73,9.73,0,0,0,9.73,1.36,4.68,4.68,0,0,0,3.32-4,4.45,4.45,0,0,0-2.41-4.6c-3.21-1.78-6.51-3.4-9.76-5.12s-6.32-3.47-7.9-7c-3.7-8.27-.13-18.87,11.15-20,5.77-.56,10.72.9,14.35,5.81,1.15,1.55,1,2.51-.65,3.35a13.05,13.05,0,0,0-1.2.79c-1.21.77-2.33,1.88-3.65,2.24-1.72.48-2-1.66-3.17-2.43-2.28-1.51-5-1.72-6.93-.24-2.59,2-2.43,5.45.45,7.48,3.48,2.46,7.54,3.83,11.28,5.8A14.68,14.68,0,0,1,101.33,76c-1.35,5.78-6,9.6-12.84,10.51C87.47,86.68,86.43,86.73,85.06,86.85Z"/><path class="Skill-JS-3" d="M62,56.77c0,5.2,0,10.39,0,15.59.07,10.48-7.89,16-18.48,13.92a14.15,14.15,0,0,1-9.6-6.61c-.91-1.42-1.12-2.4.65-3.16A12.58,12.58,0,0,0,36,75.62c1.36-.84,2.65-2.15,4.1-2.37,1.67-.24,1.89,2,3,3a6.08,6.08,0,0,0,6,1.34c2.28-.68,3-2.49,3.08-4.63.12-4.87.17-9.75.19-14.63,0-6.23.08-12.47,0-18.7,0-2,.67-2.71,2.61-2.53a20.6,20.6,0,0,0,4.08,0c2.26-.25,3.09.53,3,2.9-.16,5.59,0,11.19,0,16.79Z"/></g></g></g></svg>