<svg xmlns="http://www.w3.org/2000/svg" viewBox="0 0 122.67 106.97"><defs><style>.Skill-React-1{fill:#c2a890;}.Skill-React-2{fill:#41414d;}.Skill-React-3{fill:#0adcff;}</style></defs><g id="圖層_2" data-name="圖層 2"><g id="圖層_1-2" data-name="圖層 1"><rect class="Skill-React-1" width="122.67" height="106.97" rx="21.48"/><g id="ObjRk3.tif"><path class="Skill-React-1" d="M47,86.92c-4.58,0-7.83-3-8.92-8.13a17.78,17.78,0,0,1-.34-2.74c0-.63,0-1.26,0-1.92,0-.29,0-.59,0-.91a18.49,18.49,0,0,1,.53-6,3.45,3.45,0,0,0,.08-.42,3.65,3.65,0,0,0-.73-.31A25.82,25.82,0,0,1,27,60.23c-4.17-4.25-4.22-9.14-.12-13.4,2.6-2.71,6-4.69,10.68-6.25a3.57,3.57,0,0,0,.77-.33,3.15,3.15,0,0,0-.08-.63,26,26,0,0,1-.45-10.46c1.42-7.9,6.31-9.08,9.11-9.08a14.32,14.32,0,0,1,5,1A27.13,27.13,0,0,1,61,26.79a2.5,2.5,0,0,0,.34.28,4.69,4.69,0,0,0,.44-.37,30,30,0,0,1,7.47-5c.48-.23.93-.44,1.38-.61a14.11,14.11,0,0,1,5-1c5.3,0,8.8,3.76,9.34,10.06a34.71,34.71,0,0,1-.5,9.87c0,.13,0,.23,0,.3a4.68,4.68,0,0,0,.44.17,27,27,0,0,1,11,6.36c4,4,4,9.13,0,13.28a25.51,25.51,0,0,1-11,6.46,2.92,2.92,0,0,0-.45.18,3.23,3.23,0,0,0,.07.38c1.18,5.06,1.13,9.24-.16,13.17-1.38,4.19-4.51,6.6-8.6,6.6a11.47,11.47,0,0,1-2.35-.25c-5-1-8.71-3.87-11.4-6.25a3,3,0,0,0-.54-.41,2.43,2.43,0,0,0-.4.3,28.43,28.43,0,0,1-8.86,5.59A14.09,14.09,0,0,1,47,86.92ZM45.16,73.5c0,.41,0,.83.06,1.25a18.19,18.19,0,0,0,.21,2.44c.45,2.3,1.16,2.3,1.64,2.3h0a5.57,5.57,0,0,0,1.71-.34A23.57,23.57,0,0,0,56,74.8c-1.36-1.7-2.75-3.39-4.14-5a1.79,1.79,0,0,0-.38-.08l-1.8-.26c-1.34-.2-2.73-.4-4.11-.64A26.07,26.07,0,0,0,45.16,73.5Zm21.58,1.21c.34.26.76.58,1.24,1a16.44,16.44,0,0,0,6.56,3.55,5,5,0,0,0,1.24.19h0c.48,0,.89,0,1.33-1.52a18.62,18.62,0,0,0,.5-2.78c0-.38.1-.76.16-1.14l-.2-1.57c-.16-1.26-.32-2.51-.49-3.75-5.82.62-5.83.63-9.36,4.88l-.77.91Zm-10-30.39a1.16,1.16,0,0,0-1.21.75c-1.18,2.13-2.42,4.25-3.62,6.3L51,52.89a1,1,0,0,0,0,1.16,72.67,72.67,0,0,0,4.7,8c.32.46.4.46.46.47.64,0,1.29.11,1.93.17,1.21.11,2.35.22,3.49.22h.16c5.16,0,5.16,0,7.62-4.56.5-.9.93-1.66,1.3-2.3a11.46,11.46,0,0,0,1.31-2.66,9.58,9.58,0,0,0-1.2-2.37c-.42-.72-.94-1.6-1.54-2.69-1.15-2.09-1.83-3.3-2.45-3.65s-2-.36-4.38-.37h-.92l-1.32,0H58.75c-.61,0-1.23,0-1.85-.05ZM40.11,47.54c-3.1,1.17-6,2.37-8,4.71-.89,1-.89,1.4,0,2.41,1.63,1.84,3.75,3,6.62,4.24.53.23,1.07.46,1.47.61.14-.37.32-.88.48-1.34.46-1.3.94-2.53,1.4-3.71l.36-.9-.53-1.39C41.29,50.62,40.71,49.08,40.11,47.54Zm42.31-.07c-1.84,4-2.59,7.44-.38,10.91a4.12,4.12,0,0,1,.48,1.07,26.6,26.6,0,0,0,7.5-4,3.13,3.13,0,0,0,1.24-1.78,2,2,0,0,0-.72-1.52C88.43,49.84,85.52,48.66,82.42,47.47ZM47.06,27.55c-.27,0-1,0-1.46,1.36a12.77,12.77,0,0,0-.36,4.15v1.06a22.11,22.11,0,0,0,.3,4.19c1.6-.34,3.21-.59,4.78-.84l1.24-.2a1,1,0,0,0,.35-.09c1.34-1.6,2.71-3.24,4.06-4.89-2.48-2.05-5.18-4-8.41-4.68A2.34,2.34,0,0,0,47.06,27.55ZM70.63,37a.69.69,0,0,0,.43.24l.94.15c1.67.27,3.41.54,5.12.89a20.24,20.24,0,0,0,.32-4.72c0-.45,0-.91,0-1.36a11.46,11.46,0,0,0-.14-2.47c-.48-2.23-1.15-2.23-1.68-2.23a6,6,0,0,0-1.66.3c-2.73.82-5,2.58-7.37,4.43Z"/><path class="Skill-React-1" d="M61.25,62.3a9.34,9.34,0,0,1-8.74-8.91,8.74,8.74,0,0,1,8.87-8.46,8.29,8.29,0,0,1,8.53,8.57,8.8,8.8,0,0,1-8.54,8.8Z"/></g><rect class="Skill-React-2" x="2" y="2" width="118.67" height="102.97" rx="19.48"/><g id="ObjRk3.tif-2" data-name="ObjRk3.tif"><path class="Skill-React-3" d="M39.76,73.16a17.07,17.07,0,0,1,.45-5.42c.52-1.87-.22-2.59-1.94-3.15a23.79,23.79,0,0,1-9.86-5.76c-3.38-3.44-3.47-7.12-.11-10.61a23.74,23.74,0,0,1,9.87-5.75c1.81-.6,2.44-1.34,2-3.28a24.38,24.38,0,0,1-.43-9.67C40.92,23,44.94,20.62,51.17,23a25.21,25.21,0,0,1,8.41,5.28c1.43,1.35,2.3,1,3.5-.07a27.86,27.86,0,0,1,7-4.72c.4-.19.81-.38,1.23-.54,6.54-2.47,11,.42,11.64,7.37a32.56,32.56,0,0,1-.48,9.3c-.32,1.63.24,2.26,1.72,2.75a25.53,25.53,0,0,1,10.24,5.88c3.26,3.29,3.22,7.13,0,10.49a23.86,23.86,0,0,1-10.18,5.94c-1.61.53-2.1,1.24-1.71,2.92a22,22,0,0,1-.11,12.08c-1.34,4.07-4.45,5.88-8.65,5s-7.44-3.1-10.47-5.79C62,77.7,61,77.61,59.68,78.79A26.4,26.4,0,0,1,51.43,84c-5.63,2.19-10,.55-11.35-5.62a16.75,16.75,0,0,1-.31-2.45C39.72,75.1,39.76,74.27,39.76,73.16ZM61.45,42.34h0c-1.47,0-3,.08-4.42,0a3.2,3.2,0,0,0-3.3,1.77c-1.45,2.62-3,5.2-4.49,7.78A3,3,0,0,0,49.19,55,74.72,74.72,0,0,0,54,63.21a2.5,2.5,0,0,0,2,1.33c1.91.14,3.81.42,5.74.4,6.06-.06,6.43-.24,9.36-5.6,3.89-7.11,3.76-4.88-.14-12-2.8-5.09-2.89-5-8.73-5Zm18-8.81a22.7,22.7,0,0,0-.2-4.2c-.75-3.46-2.46-4.45-5.87-3.42s-5.86,3.1-8.49,5.14c-.95.73-.65,1.54,0,2.31l4.22,5a2.59,2.59,0,0,0,1.63.92c2.15.35,4.31.68,6.44,1.12,1.21.25,1.6-.27,1.83-1.32A22.18,22.18,0,0,0,79.44,33.53ZM93.26,53.84a4,4,0,0,0-1.23-3C89.44,48,86,46.68,82.48,45.35c-1.1-.42-1.41.28-1.8,1.11-2,4.3-3.13,8.58-.32,13a3.54,3.54,0,0,1,.37,1.08c.31,1.13,1,1.3,2,.95a28.6,28.6,0,0,0,8.46-4.42A5,5,0,0,0,93.26,53.84ZM79.79,74c-.27-2.07-.51-4.09-.8-6.1a1.36,1.36,0,0,0-1.74-1.28c-6.87.73-6.94.66-11.07,5.63-2.78,3.34-2.56,2.39.52,5a18.46,18.46,0,0,0,7.37,4c2.75.68,4.18,0,5-2.72A38.32,38.32,0,0,0,79.79,74ZM44.54,53.57c-1-2.68-2-5.37-3.06-8-.2-.48-.78-.37-1.21-.21-3.54,1.32-7.08,2.65-9.69,5.58C29,52.67,29,54.22,30.57,56a19.79,19.79,0,0,0,7.33,4.75c3.46,1.51,3.44,1.5,4.65-2C43.16,57,43.86,55.33,44.54,53.57Zm-1.38,20a33,33,0,0,0,.31,4c.69,3.58,2.49,4.63,6,3.47A26.23,26.23,0,0,0,57.73,76c.5-.42,1-1,.44-1.64-1.58-2-3.2-4-4.84-5.93a2.4,2.4,0,0,0-1.55-.7c-2.09-.31-4.19-.58-6.27-1-1.17-.22-1.65.25-1.84,1.33A28.35,28.35,0,0,0,43.16,73.58ZM43.24,34a25.84,25.84,0,0,0,.36,4.88c.19,1.32.71,1.73,2,1.44,2.06-.44,4.16-.75,6.24-1.08a2.35,2.35,0,0,0,1.51-.74q2.28-2.7,4.52-5.44c.4-.5.8-1.1.11-1.68-3-2.53-6.09-4.9-10.05-5.73a3.47,3.47,0,0,0-4.26,2.61A18,18,0,0,0,43.24,34Zm20.2,4.72c.4,0,1.4.2.85-.7-.7-1.15-1.37-2.67-2.77-3s-1.78,1.18-2.52,2a5.32,5.32,0,0,0-.45.61c-.18.25-.47.51-.25.84s.55.22.86.17A12.59,12.59,0,0,1,63.44,38.73ZM49.37,43.2c-1.09.17-1.74.2-2.34.37s-2,0-1.89,1.12a6.19,6.19,0,0,0,1.42,3.64c.31.37.65-.16.83-.47.72-1.19,1.42-2.39,2.12-3.6C49.89,43.6,49.83,43.16,49.37,43.2ZM49,63.8c.14,0,.56,0,.73-.13.33-.34,0-.7-.2-1-.71-1.21-1.43-2.41-2.15-3.62-.39-.66-.72-.84-1.19,0-1.78,3.12-1.29,4.16,2.26,4.68Zm25-.06,2.32-.44c1-.19,1.42-.73,1-1.76-.33-.83-.57-1.69-.89-2.52-.25-.66-.66-.79-1.06-.13-.8,1.31-1.58,2.63-2.35,3.94C72.62,63.57,72.81,63.91,74,63.74Zm-.07-20.53c-.71-.06-1.32,0-.78,1,.68,1.22,1.41,2.42,2.13,3.62.51.88.86.7,1.26-.13,1.58-3.27,1.19-4-2.35-4.47A2.1,2.1,0,0,1,73.94,43.21ZM61.33,68.34c-.95.28-2.52-.5-2.77.47s1.09,1.87,1.89,2.68a1.11,1.11,0,0,0,1.82,0c.75-.83,2.22-1.57,1.87-2.65S62.3,68.61,61.33,68.34Z"/><path class="Skill-React-3" d="M67.91,53.5a6.85,6.85,0,0,1-6.63,6.8,7.34,7.34,0,0,1-6.77-6.89,6.74,6.74,0,0,1,6.94-6.48A6.24,6.24,0,0,1,67.91,53.5Z"/></g></g></g></svg>