<svg xmlns="http://www.w3.org/2000/svg" viewBox="0 0 122.67 106.97"><defs><style>.Skill-AJAX-1{fill:#c2a890;}.Skill-AJAX-2{fill:#afd4dd;}.Skill-AJAX-3{fill:#6fbffe;}.Skill-AJAX-4{fill:#fefefe;}</style></defs><g id="圖層_2" data-name="圖層 2"><g id="圖層_1-2" data-name="圖層 1"><rect class="Skill-AJAX-1" width="122.67" height="106.97" rx="21.48"/><path class="Skill-AJAX-1" d="M69.29,68.79a2.08,2.08,0,0,1-1-.23l-.39-.2c-1-.49-3.31-1.64-2.75-4.61a1.74,1.74,0,0,1,0-.22L67,58q2.11-6.8,4.19-13.61c.6-2,1.72-4.26,5-4.26a10.82,10.82,0,0,1,1.09.07,4.41,4.41,0,0,1,3.93,3.17c.39,1.25.78,2.49,1.18,3.74L83,48.87c.13.43.24.84.35,1.25a10.23,10.23,0,0,0,.87,2.47,2,2,0,0,1,.24.62,53.16,53.16,0,0,0,1.7,6c.41,1.26.84,2.57,1.2,3.9.77,2.78-.12,4.5-2.82,5.39a4.41,4.41,0,0,1-1.44.25c-1,0-2.84-.4-3.77-3.13A10.16,10.16,0,0,1,79,64.16c0-.23-.09-.53-.15-.74h-.25c-.3,0-.61,0-.92.05s-.82.06-1.22.06H76c-.29,0-.92,0-1.26,0-.14.32-.35,1-.54,1.6-.92,2.93-1.73,3.54-4.81,3.63Zm7.78-12.85c0-.16-.1-.32-.14-.48,0,.16-.06.32-.08.48Z"/><path class="Skill-AJAX-1" d="M89.77,69.05a2,2,0,0,1-.6-.1l-.29-.08c-.26-.08-.53-.17-.79-.27A4.45,4.45,0,0,1,85.23,66a4.39,4.39,0,0,1,.61-3.76c1.06-1.8,2.16-3.58,3.25-5.36.49-.8,1-1.6,1.47-2.41-.37-.61-.72-1.23-1.06-1.83A21.28,21.28,0,0,0,87.12,49a2.17,2.17,0,0,1-.32-.49L85.23,45a2.19,2.19,0,0,1-.18-.94,4,4,0,0,1,2.65-3.46l.44-.23a1.91,1.91,0,0,1,.7-.26,4.13,4.13,0,0,1,.76-.07,4.55,4.55,0,0,1,3.86,2.54l.3.44a2.06,2.06,0,0,1,.24.44,22.46,22.46,0,0,0,1.65,3.18c.06.12.13.23.2.35l.19-.36c.77-1.41,1.53-2.81,2.33-4.19a4.26,4.26,0,0,1,3.72-2.35,4.52,4.52,0,0,1,2.39.72c1.29.8,3.17,2.63,1.24,5.91q-2,3.41-4,6.79c-.21.36-.44.75-.57,1,.17.25.47.64.77,1a1.85,1.85,0,0,1,.21.33l.18.37a9.09,9.09,0,0,0,1.48,2.35,2,2,0,0,1,.47.75,10.24,10.24,0,0,0,1,1.83c.3.46.59.93.85,1.42.85,1.58,1.26,3.82-1.57,5.52a4.73,4.73,0,0,1-2.4.73,3.87,3.87,0,0,1-3.28-1.93c-.31-.47-.59-1-.88-1.45l-2.17-3.73a33.4,33.4,0,0,0-2.14,4,1.93,1.93,0,0,1-.67.85,3,3,0,0,1-.17.31A3.83,3.83,0,0,1,90.07,69,1.53,1.53,0,0,1,89.77,69.05Z"/><path class="Skill-AJAX-1" d="M48.26,72a24.43,24.43,0,0,1-4-.28,13.61,13.61,0,0,1-4-1.43,2.19,2.19,0,0,1-.44-.31,17.7,17.7,0,0,1-2.58-3,1.93,1.93,0,0,1-.3-.65c-.06-.24-.14-.47-.22-.7a8.38,8.38,0,0,1-.5-2.22c-.13-2.47.81-4.1,2.78-4.83a4.51,4.51,0,0,1,1.5-.28,4.67,4.67,0,0,1,3.73,2.33,2,2,0,0,1,.37,1.06c.06,1.36.18,1.46.81,1.56l6.57,0c.37,0,.55,0,.74-.68A8.87,8.87,0,0,0,53,60.13a3.7,3.7,0,0,1-.63.06,4.31,4.31,0,0,1-1.63-.33,1.4,1.4,0,0,1-.3-.15,4.38,4.38,0,0,1-1.94-5.58,2,2,0,0,1,.47-.75l5.49-5.51a2,2,0,0,1,.59-.41A4.67,4.67,0,0,1,57,47a6.08,6.08,0,0,1,3.94,1.85L61,49l3.35,3.45c2,2,2.2,4.49.62,6.31a3.81,3.81,0,0,1-2.94,1.43,4,4,0,0,1-.76-.08c0,.47,0,.92.06,1.35a9.75,9.75,0,0,1-2.42,7.29,10.15,10.15,0,0,1-7.47,3.18l-1.07,0C49.68,72,49,72,48.26,72Z"/><path class="Skill-AJAX-1" d="M19.21,68.78a7.78,7.78,0,0,1-1.78-.26,1.54,1.54,0,0,0-.31,0l-.25,0A2,2,0,0,1,16,68a4.39,4.39,0,0,1-1.25-6,1.66,1.66,0,0,1,0-.24c0-.18.06-.36.1-.53s0-.09,0-.14l1.47-4.73q1.93-6.27,3.89-12.54c.86-2.75,2.21-3.77,5-3.77s4.35,1.11,5.18,3.93c.09.29.17.59.25.89a11.73,11.73,0,0,0,.84,2.41,1.82,1.82,0,0,1,.24.78,12.53,12.53,0,0,0,1,3.37l.07.18.06.18,2.7,9.2.21.7c.15.48.29.95.42,1.43a4.44,4.44,0,0,1-.59,3.87,4.39,4.39,0,0,1-3.49,1.68H32a3.55,3.55,0,0,1-3.67-2.84c-.07-.29-.17-.58-.27-.87a12.31,12.31,0,0,1-.44-1.56c-.61,0-1.26,0-2,0s-1.35,0-2,0c-.11.44-.24.85-.36,1.23-.07.19-.13.39-.19.58C22.77,66.28,22,68.78,19.21,68.78ZM25.66,56l.3,0c0-.22-.08-.43-.13-.63C25.82,55.35,25.7,55.79,25.66,56Z"/><path class="Skill-AJAX-1" d="M40.46,60.11a4.68,4.68,0,0,1-3.24-1.39c-.9-.87-1.78-1.75-2.66-2.64l-1.7-1.71a5,5,0,0,1-1.34-3.67,1.85,1.85,0,0,1,.11-.69,4.59,4.59,0,0,1,3.12-3l.33-.06a2.69,2.69,0,0,1,.49,0,3.05,3.05,0,0,1,.62,0V46c0-.1,0-.2,0-.3a8.59,8.59,0,0,0,.06-1.28,9.13,9.13,0,0,1,.41-3.11,9.36,9.36,0,0,1,8.89-6.37l1.14,0,.56,0h1.82c1.22,0,2.31,0,3.43.06a9.18,9.18,0,0,1,6.28,2.9,9.61,9.61,0,0,1,2.52,7.07,1.94,1.94,0,0,1-.28.94A6.38,6.38,0,0,1,58.94,48a2,2,0,0,1-1.06.3h0c-3.22,0-4.2-.8-5-3.9-.26-1-.43-1.07-1.28-1.08s-1.94,0-2.91,0-1.8,0-2.7,0-1.27.37-1.3,1.25,0,1.58,0,2.39a3.08,3.08,0,0,1,.53,0A4.22,4.22,0,0,1,48,48.05a3.93,3.93,0,0,1,.66,5.4,30.37,30.37,0,0,1-5.54,5.69A4,4,0,0,1,40.46,60.11Z"/><rect class="Skill-AJAX-2" x="2" y="2" width="118.67" height="102.97" rx="19.48"/><path class="Skill-AJAX-3" d="M69.29,66.79c-1.09-.58-2.45-1-2.13-2.67,2-6.39,4-12.78,5.92-19.18.7-2.33,1.64-3,4-2.78a2.43,2.43,0,0,1,2.25,1.77c.57,1.85,1.17,3.7,1.75,5.55a18.74,18.74,0,0,0,1.41,4.12c.69,3.44,2,6.7,2.94,10.07.47,1.73.17,2.4-1.53,3-1.31.43-2.17-.11-2.68-1.63-.39-1.14-.27-2.76-1.21-3.31s-2.37-.18-3.59-.18c-3.21,0-3.21,0-4.17,3C71.59,66.69,71.53,66.73,69.29,66.79Zm5.58-11.14c-.42.29-.23.81-.45,1.18-.5.84-.31,1.2.72,1.15,1.25-.06,2.51,0,3.77,0,.64,0,.88-.15.64-.84-.46-1.36-.85-2.76-1.28-4.14a25,25,0,0,0-1.45-4.94C76.13,50.87,75.24,53.18,74.87,55.65Z"/><path class="Skill-AJAX-3" d="M99.34,63.86l-2.06-3.55a8.15,8.15,0,0,0-1.52-2.49c-1.3,2.48-2.89,4.68-3.93,7.19-.79.58-.88,1.86-2.06,2-.32-.11-.65-.19-1-.31-1.82-.7-2.25-1.8-1.25-3.48,1.6-2.71,3.27-5.38,4.91-8.07.19-.31.58-.57.27-1-1.42-2.13-2.41-4.53-4.11-6.48l-1.58-3.48c.07-1.34,1.24-1.56,2.12-2.09,1.68-.27,2.21,1.07,3,2.11.8,2,2.11,3.83,3.07,5.79.14.29.36.73.59.77.47.08.53-.47.7-.79,1.21-2.17,2.37-4.37,3.61-6.52a2.2,2.2,0,0,1,3.33-.93c1.29.8,1.45,1.7.57,3.2l-4,6.78c-1.29,2.17-1.29,2.17.34,4.27a11.9,11.9,0,0,0,2,3.24,26.44,26.44,0,0,0,2,3.52c.71,1.32.51,2-.84,2.86a1.94,1.94,0,0,1-3-.58C100.11,65.2,99.74,64.52,99.34,63.86Z"/><path class="Skill-AJAX-4" d="M41.2,68.51a16,16,0,0,1-2.3-2.64,12.9,12.9,0,0,1-.66-2.53c-.07-1.28.13-2.36,1.48-2.85s2.19.31,2.9,1.32c.1,2.29.81,3.2,2.66,3.47l6.69,0a2.59,2.59,0,0,0,2.7-2.15c.51-1.86.2-3.76.24-5.64,0-1-.52-.58-.88-.2a2.17,2.17,0,0,1-2.6.67,2.44,2.44,0,0,1-1.09-3.21l5.5-5.51c1.57-.71,2.66.18,3.75,1.12l3.35,3.45c1.22,1.26,1.42,2.59.54,3.61s-2,1-3.48-.14l-.67-.47c0,1.73-.1,3.27,0,4.78.33,4.17-2.53,8.22-7.92,8.31a38.18,38.18,0,0,1-6.84-.19A11.39,11.39,0,0,1,41.2,68.51Z"/><path class="Skill-AJAX-3" d="M17.2,66.45A2.41,2.41,0,0,1,16.5,63a5.58,5.58,0,0,0,.31-1.25q2.69-8.64,5.36-17.27c.6-1.93,1.22-2.38,3.13-2.37s2.63.51,3.21,2.49a18,18,0,0,0,1.26,3.7A15.09,15.09,0,0,0,31,52.44l2.7,9.2c.21.7.43,1.39.62,2.09a2.2,2.2,0,0,1-2.23,3,1.6,1.6,0,0,1-1.83-1.29c-.2-.85-.6-1.66-.72-2.52-.16-1.14-.69-1.54-1.84-1.47-1.5.1-3,.06-4.52,0-.79,0-1.26.15-1.4,1a17.67,17.67,0,0,1-.64,2.23c-.58,1.95-1.23,2.31-3.22,1.82C17.68,66.52,17.43,66.49,17.2,66.45Zm9.08-8.53c2.57.11,2.57.11,1.7-2a14.43,14.43,0,0,0-1.19-4.12,17.32,17.32,0,0,0-1-4c-.57,2.2-1,4-1.51,5.73-.14.46-.3.91-.42,1.37C23,58.07,23,58.07,26.28,57.92Z"/><path class="Skill-AJAX-4" d="M38.19,46c.2-1.33-.1-2.69.38-4a7.3,7.3,0,0,1,7-5l1.74-.05c1.7,0,3.41,0,5.11.05a7.31,7.31,0,0,1,6.88,7.9,4.28,4.28,0,0,1-1.45,1.48c-2.31,0-2.51-.18-3.09-2.4a2.93,2.93,0,0,0-3.17-2.58c-1.9,0-3.8,0-5.7,0a3.08,3.08,0,0,0-3.25,3.19c0,1.85,0,3.7,0,5.57.66.13.82-.47,1.19-.71a2.11,2.11,0,0,1,2.81.18A1.93,1.93,0,0,1,47,52.3a28.37,28.37,0,0,1-5.19,5.31,2.31,2.31,0,0,1-3.2-.33c-1.47-1.42-2.89-2.89-4.35-4.33a3,3,0,0,1-.74-2.29,2.62,2.62,0,0,1,1.81-1.77c1.17-.15,1.85.83,2.86,1.33Z"/></g></g></svg>